<svg width="161" height="107" viewBox="0 0 161 107" fill="none" xmlns="http://www.w3.org/2000/svg">
  <rect width="160.5" height="107" fill="#757575"/>
  <path fill-rule="evenodd" clip-rule="evenodd" d="M79.0219 107H118.63V94.4607C118.63 91.9529 103.278 84.4294 90.4848 79.4138V69.3826C90.4848 69.3826 95.1928 67.6271 95.1928 56.8435C98.7545 56.8435 100.111 46.8123 95.1519 46.8123C95.1519 45.754 98.9695 40.2518 97.4496 34.2732C94.8909 24.2419 69.657 24.2419 67.0983 34.2732C56.3262 32.1165 64.8979 45.3678 64.8979 46.8123C59.7805 46.8123 59.7805 56.8435 64.8979 56.8435C64.8979 67.6271 70.0153 69.3826 70.0153 69.3826V79.4138C57.2218 84.4294 41.8696 91.9529 41.8696 94.4607V107H79.0219Z" fill="#828282"/>
</svg>
