<svg viewBox="0 0 12 12" fill="none" xmlns="http://www.w3.org/2000/svg">
  <path fill-rule="evenodd" clip-rule="evenodd" d="M6.7837 2.81723L7.61496 3.63584L3.92934 7.37835C3.7444 7.56712 3.7444 7.8709 3.92934 8.05966C4.10483 8.23878 4.398 8.23797 4.57162 8.05868L8.6266 3.93941C9.21857 3.33529 9.21857 2.36508 8.6266 1.76096C8.0618 1.18457 7.06244 1.19739 6.5089 1.76206L2.08297 6.25499C1.08372 7.27432 1.08372 8.91113 2.08297 9.93046C3.0533 10.9203 4.72016 10.9042 5.67533 9.92954L10.8373 4.68699L11.6686 5.50553L6.50761 10.7471C5.0995 12.1839 2.68121 12.2073 1.24985 10.7472C-0.194127 9.27418 -0.194127 6.91127 1.25085 5.43726L5.67677 0.944339C6.6821 -0.0812018 8.43287 -0.103664 9.45989 0.944423C10.4964 2.00216 10.4964 3.69821 9.45896 4.7569L5.40641 8.87367C4.77952 9.52113 3.73077 9.52405 3.09599 8.87614C2.46663 8.23377 2.46663 7.20424 3.09704 6.56081L6.7837 2.81723Z" fill="#979797"/>
</svg>
