<svg viewBox="32 0 132 132" xmlns="http://www.w3.org/2000/svg">
  <rect x="32" y="0" width="132" height="132" fill="#757575"/>
  <path
    fill-rule="evenodd"
    clip-rule="evenodd"
    d="M97.1386 131.291H145.648V115.934C145.648 112.863 126.846 103.649 111.178 97.5059V85.2204C111.178 85.2204 116.944 83.0704 116.944 69.8635C121.306 69.8635 122.966 57.578 116.893 57.578C116.893 56.2819 121.569 49.5433 119.707 42.2211C116.574 29.9356 85.6693 29.9356 82.5356 42.2211C69.3427 39.5797 79.8406 55.8089 79.8406 57.578C73.5732 57.578 73.5732 69.8635 79.8406 69.8635C79.8406 83.0704 86.108 85.2204 86.108 85.2204V97.5059C70.4395 103.649 51.6373 112.863 51.6373 115.934V131.291H97.1386Z"
    fill="#828282"
  />
</svg>
