<svg width="16" height="17" viewBox="0 0 16 17" fill="none" xmlns="http://www.w3.org/2000/svg">
  <path
    d="M5.22439 10.0193C4.92674 9.9782 4.63273 9.91286 4.34786 9.8245L1.30435 11.069L2.52176 8.89112C1.56366 8.1077 1 6.94658 1 5.73878C1 3.35617 3.31611 1.42407 6.17397 1.42407C9.03122 1.42407 11.3479 3.35617 11.3479 5.73878"
    stroke="white" stroke-width="1.3" stroke-linecap="round" stroke-linejoin="round"/>
  <path fill-rule="evenodd" clip-rule="evenodd"
        d="M6.47809 11.0686C6.47809 13.7368 9.5216 15.7355 12.2608 14.491L14.6956 15.4244L13.7825 13.5576C14.5714 12.9123 14.9999 12.063 14.9999 11.0686C14.9999 9.10602 13.0922 7.33508 10.739 7.33508C8.38576 7.33508 6.47809 9.10602 6.47809 11.0686V11.0686Z"
        stroke="white" stroke-width="1.3" stroke-linecap="round" stroke-linejoin="round"/>
</svg>
