<svg width="16" height="16" viewBox="0 0 16 16" fill="none" xmlns="http://www.w3.org/2000/svg">
  <path fill-rule="evenodd" clip-rule="evenodd" d="M0.861877 14.1952L1.80469 15.138L5.02541 11.9172C7.98204 14.6014 11.6267 15.5328 13.4027 13.7558C13.7126 13.4571 13.9749 13.1946 14.1818 12.9759C14.7785 12.3452 14.8691 11.2397 14.1779 10.5215C13.8235 10.1533 13.1002 9.59221 11.8219 8.67786C11.4304 8.32779 10.9662 8.40366 10.5406 8.68286C10.3359 8.81717 10.187 8.95302 9.90565 9.23461L9.39482 9.74572C9.34014 9.80044 8.72631 9.50841 8.02219 8.92045L15.138 1.80463L14.1952 0.861816L0.861877 14.1952ZM7.07319 9.86946L5.9693 10.9733C8.45184 13.2016 11.3322 13.9419 12.4691 12.8044C12.7742 12.5102 13.0227 12.2615 13.2141 12.0592C13.3523 11.9131 13.377 11.6116 13.218 11.4463C12.9531 11.1711 12.3046 10.6655 11.1848 9.86135C11.1032 9.92704 11.0029 10.0223 10.848 10.1773L10.3371 10.6885C9.56892 11.4571 8.32302 10.9664 7.07319 9.86946ZM6.24952 6.59898C6.2255 6.623 6.26892 6.75596 6.37545 6.95761L5.39497 7.93809C4.85799 7.04425 4.74233 6.22101 5.30753 5.65586L5.81821 5.14489C5.89993 5.06309 5.93731 5.0252 5.98218 4.97805C6.04331 4.9138 6.09354 4.85737 6.13376 4.80744C5.35685 3.72521 4.82872 3.04898 4.54401 2.76773C4.39697 2.62248 4.06773 2.64922 3.94686 2.76832C3.62449 3.08596 3.51853 3.19187 3.18409 3.53154C2.19719 4.51898 2.63984 6.84605 4.25619 9.07686L3.30261 10.0304C1.23309 7.27481 0.649722 4.18171 2.23827 2.59231C2.57406 2.25124 2.68478 2.14058 3.01182 1.81833C3.6207 1.21838 4.77721 1.12444 5.48025 1.81893C5.85005 2.18423 6.43961 2.94279 7.31625 4.16944C7.70689 4.60246 7.58303 5.09303 7.23763 5.5585C7.15574 5.66886 7.06135 5.7776 6.94734 5.89742C6.89262 5.95493 6.84995 5.99818 6.7607 6.08752L6.24952 6.59898Z" fill="white"/>
</svg>
