<svg width="13" height="13" viewBox="0 0 13 13" fill="none" xmlns="http://www.w3.org/2000/svg">
  <path fill-rule="evenodd" clip-rule="evenodd" d="M6.50032 0.770752C7.65091 0.770752 8.58365 1.70349 8.58365 2.85409V6.49992C8.58365 7.65051 7.65091 8.58325 6.50032 8.58325C5.34973 8.58325 4.41699 7.65051 4.41699 6.49992V2.85409C4.41699 1.70349 5.34973 0.770752 6.50032 0.770752ZM7.021 10.6343V11.1874H8.5835V12.2291H4.41683V11.1874H5.97933V10.6343C3.92396 10.378 2.3335 8.62472 2.3335 6.49992V5.45825H3.37516V6.49992C3.37516 8.22581 4.77427 9.62492 6.50016 9.62492C8.22605 9.62492 9.62516 8.22581 9.62516 6.49992V5.45825H10.6668V6.49992C10.6668 8.62472 9.07637 10.378 7.021 10.6343ZM5.4585 2.85416C5.4585 2.27887 5.92487 1.8125 6.50016 1.8125C7.07546 1.8125 7.54183 2.27887 7.54183 2.85416V6.5C7.54183 7.07529 7.07546 7.54166 6.50016 7.54166C5.92487 7.54166 5.4585 7.07529 5.4585 6.5V2.85416Z" fill="black"/>
</svg>
