<svg width="10" height="9" viewBox="0 0 10 9" fill="none" xmlns="http://www.w3.org/2000/svg">
  <path fill-rule="evenodd" clip-rule="evenodd" d="M3.52088 3.80304L0.963501 1.31375L1.50273 0.788881L9.12861 8.2117L8.58938 8.73658L6.91655 7.10829C6.49464 7.42753 5.98431 7.64129 5.42735 7.70889V8.103H6.57123V8.84528H3.52088V8.103H4.66476V7.70889C3.16006 7.52625 1.9957 6.27684 1.9957 4.76273V4.02045H2.75829V4.76273C2.75829 5.99258 3.78256 6.98958 5.04605 6.98958C5.54015 6.98958 5.99766 6.83711 6.37164 6.57789L5.82083 6.04175C5.59377 6.17235 5.3289 6.24729 5.04605 6.24729C4.20372 6.24729 3.52088 5.58263 3.52088 4.76273V3.80304ZM5.24358 5.47987C5.18058 5.49627 5.11437 5.50501 5.04605 5.50501C4.62489 5.50501 4.28347 5.17268 4.28347 4.76273V4.54532L5.24358 5.47987ZM5.80864 2.16474V3.94094L6.57123 4.68323V2.16474C6.57123 1.34484 5.88839 0.680176 5.04605 0.680176C4.34498 0.680176 3.75438 1.14061 3.57602 1.76777L4.28347 2.45638V2.16474C4.28347 1.75479 4.62489 1.42246 5.04605 1.42246C5.46722 1.42246 5.80864 1.75479 5.80864 2.16474ZM7.85178 5.92968L7.25403 5.34784C7.30605 5.16139 7.33382 4.96522 7.33382 4.76273V4.02045H8.09641V4.76273C8.09641 5.17701 8.00924 5.57147 7.85178 5.92968Z" fill="white"/>
</svg>
