<svg width="11" height="12" viewBox="0 0 11 12" fill="none" xmlns="http://www.w3.org/2000/svg">
  <path fill-rule="evenodd" clip-rule="evenodd"
        d="M5.676 12H0V10.125C0 9.75 2.2 8.625 4.03333 7.875V6.375C4.03333 6.375 3.35867 6.1125 3.35867 4.5C2.84827 4.5 2.65393 3 3.36453 3C3.36453 2.84175 2.81747 2.019 3.03527 1.125C3.40193 -0.375 7.018 -0.375 7.38467 1.125C8.92833 0.8025 7.7 2.784 7.7 3C8.43333 3 8.43333 4.5 7.7 4.5C7.7 6.1125 6.96667 6.375 6.96667 6.375V7.875C8.8 8.625 11 9.75 11 10.125V12H5.676Z"
        fill="#828282"/>
</svg>
