<?xml version="1.0" encoding="utf-8"?>
<!-- Generator: Adobe Illustrator 23.0.4, SVG Export Plug-In . SVG Version: 6.00 Build 0)  -->
<svg version="1.1" id="Layer_1" xmlns="http://www.w3.org/2000/svg" xmlns:xlink="http://www.w3.org/1999/xlink" x="0px" y="0px"
	 viewBox="0 0 15 15" style="enable-background:new 0 0 15 15;" xml:space="preserve">
<path d="M7.4,14.4H4c-0.2,0-0.4-0.2-0.4-0.4s0.2-0.4,0.4-0.4h3.4c0.2,0,0.4,0.2,0.4,0.4S7.6,14.4,7.4,14.4z"/>
<path d="M5.6,14.2c-0.2,0-0.4-0.2-0.4-0.4v-1.1c0-0.2,0.2-0.4,0.4-0.4S6,12.5,6,12.7v1.1C6,14,5.8,14.2,5.6,14.2z"/>
<path d="M5.9,7.2C5.7,7.2,5.5,7,5.5,6.8V5.3c0-1.3,1.1-2.4,2.5-2.4h1c0.2,0,0.4,0.2,0.4,0.4S9.2,3.7,9,3.7H8c-0.9,0-1.7,0.7-1.7,1.6
	v1.5C6.3,7,6.1,7.2,5.9,7.2z"/>
<path d="M5.9,7.2c-0.1,0-0.2,0-0.3-0.1L4.5,6c-0.2-0.2-0.2-0.4,0-0.6c0.2-0.2,0.4-0.2,0.6,0l0.9,0.8l0.9-0.8c0.2-0.2,0.4-0.1,0.6,0
	c0.2,0.2,0.1,0.4,0,0.6L6.2,7.1C6.1,7.1,6,7.2,5.9,7.2z"/>
<path d="M9,13.1H2.2c-0.7,0-1.2-0.5-1.2-1.2V8.1c0-0.7,0.6-1.2,1.2-1.2h0.8c0.2,0,0.4,0.2,0.4,0.4S3.3,7.7,3.1,7.7H2.2
	C2,7.7,1.8,7.9,1.8,8.1v3.8c0,0.2,0.2,0.4,0.4,0.4H9c0.2,0,0.4-0.2,0.4-0.4V8.1c0-0.2-0.2-0.4-0.4-0.4H8.1c-0.2,0-0.4-0.2-0.4-0.4
	s0.2-0.4,0.4-0.4H9c0.7,0,1.2,0.5,1.2,1.2v3.8C10.2,12.6,9.7,13.1,9,13.1z"/>
<path d="M13.5,6.1H9C8.7,6.1,8.4,6,8.2,5.8C8,5.6,8,5.4,8.1,5.2c0.1-0.2,0.4-0.2,0.6,0C8.8,5.3,8.9,5.3,9,5.3h4.5
	c0.2,0,0.4-0.2,0.4-0.4V2.2c0-0.2-0.2-0.4-0.4-0.4H9c-0.2,0-0.4-0.2-0.4-0.4S8.8,1,9,1h4.5c0.7,0,1.2,0.5,1.2,1.2v2.7
	C14.8,5.5,14.2,6.1,13.5,6.1z"/>
<path d="M12.1,7.2h-1.7C10.2,7.2,10,7,10,6.8s0.2-0.4,0.4-0.4h1.7c0.2,0,0.4,0.2,0.4,0.4S12.3,7.2,12.1,7.2z"/>
<path d="M11.2,7.2c-0.2,0-0.4-0.2-0.4-0.4V5.7c0-0.2,0.2-0.4,0.4-0.4s0.4,0.2,0.4,0.4v1.1C11.6,7,11.5,7.2,11.2,7.2z"/>
<path d="M8.1,4.5c-0.1,0-0.2,0-0.3-0.1c-0.2-0.2-0.1-0.4,0-0.6l0.5-0.5L7.9,2.7c-0.2-0.2-0.2-0.4,0-0.6C8,2,8.3,2,8.4,2.2L9.3,3
	C9.3,3,9.4,3.1,9.4,3.3s0,0.2-0.1,0.3L8.4,4.4C8.3,4.4,8.2,4.5,8.1,4.5z"/>
</svg>
