<svg width="19" height="16" viewBox="0 0 19 16" fill="none" xmlns="http://www.w3.org/2000/svg">
  <path fill-rule="evenodd" clip-rule="evenodd"
        d="M6.54004 14.5H12.116V11.1167C12.116 10.7407 9.90944 9.61294 8.07065 8.86108V7.35736C8.07065 7.35736 8.80616 7.09421 8.80616 5.47771C9.31735 5.47771 9.54168 3.97399 8.8297 3.97399C8.8297 3.8146 9.3931 2.99056 9.17392 2.09434C8.80616 0.590623 5.12859 0.590623 4.76083 2.09434C3.21257 1.77029 4.39307 3.75745 4.39307 3.97399C3.65756 3.97399 3.88115 5.47771 4.39307 5.47771C4.39307 7.09421 5.12859 7.35736 5.12859 7.35736V8.86108C3.2898 9.61294 1.08325 10.7407 1.08325 11.1167V14.5H6.54004V14.5Z"
        stroke="white" stroke-width="1.3" stroke-linejoin="round"/>
  <path
    d="M13.9547 14.4999H18V11.1166C18 10.7406 16.1612 10.2143 14.6902 9.61284V8.48505C14.6902 8.48505 15.4257 8.27453 15.4257 6.98133C15.8354 6.98133 15.995 5.47761 15.4257 5.47761C15.4257 5.35055 16.0222 4.67538 15.7935 3.97389C15.4257 2.8461 12.4837 2.8461 12.1159 3.97389C10.8766 3.7145 11.7482 5.30468 11.7482 5.47761C11.1597 5.47761 11.3385 6.98133 11.7482 6.98133C11.7482 8.27453 12.4837 8.48505 12.4837 8.48505V9.23691"
    stroke="white" stroke-width="1.3" stroke-linecap="round" stroke-linejoin="round"/>
</svg>
