<?xml version="1.0" encoding="utf-8"?>
<!-- Generator: Adobe Illustrator 23.0.4, SVG Export Plug-In . SVG Version: 6.00 Build 0)  -->
<svg version="1.1" id="Layer_1" xmlns="http://www.w3.org/2000/svg" xmlns:xlink="http://www.w3.org/1999/xlink" x="0px" y="0px"
	 viewBox="0 0 4 16" style="enable-background:new 0 0 4 16;" xml:space="preserve">
<style type="text/css">
	.st0{fill-rule:evenodd;clip-rule:evenodd;fill:#231F20;}
</style>
<path class="st0" d="M1.9,3.3c0.7,0,1.3-0.6,1.3-1.3S2.6,0.8,1.9,0.8S0.7,1.3,0.7,2S1.3,3.3,1.9,3.3z"/>
<path class="st0" d="M1.9,9.2c0.7,0,1.3-0.6,1.3-1.3S2.6,6.7,1.9,6.7S0.7,7.2,0.7,7.9S1.3,9.2,1.9,9.2z"/>
<path class="st0" d="M1.9,15.1c0.7,0,1.3-0.6,1.3-1.3s-0.6-1.3-1.3-1.3s-1.3,0.6-1.3,1.3S1.3,15.1,1.9,15.1z"/>
</svg>
