<svg viewBox="0 0 12 13" fill="none" xmlns="http://www.w3.org/2000/svg">
  <path fill-rule="evenodd" clip-rule="evenodd" d="M1.23506 0.833313H10.7311C11.3867 0.833313 11.9181 1.36475 11.9181 2.02032V11.5164C11.9181 12.1719 11.3867 12.7034 10.7311 12.7034H1.23506C0.579498 12.7034 0.0480576 12.1719 0.0480576 11.5164V2.02032C0.0480576 1.36475 0.579498 0.833313 1.23506 0.833313ZM1.23505 2.02032V8.89651L3.60905 6.52251L5.68632 8.59978L9.5441 4.742L10.7311 5.929V2.02032H1.23505ZM1.23505 11.5164V10.5752L3.60905 8.20119L6.92423 11.5164H1.23505ZM10.7311 11.5164H8.60291L6.52566 9.43912L9.5441 6.42068L10.7311 7.60768V11.5164ZM7.17009 4.39433C7.17009 3.41098 6.37293 2.61382 5.38958 2.61382C4.40624 2.61382 3.60908 3.41098 3.60908 4.39433C3.60908 5.37768 4.40624 6.17484 5.38958 6.17484C6.37293 6.17484 7.17009 5.37768 7.17009 4.39433ZM5.14974 4.74801C5.14974 4.42023 5.41546 4.15451 5.74324 4.15451C6.07102 4.15451 6.33674 4.42023 6.33674 4.74801C6.33674 5.07579 6.07102 5.34151 5.74324 5.34151C5.41546 5.34151 5.14974 5.07579 5.14974 4.74801Z" fill="black"/>
</svg>
