<svg viewBox="0 0 12 13" fill="none" xmlns="http://www.w3.org/2000/svg">
  <path fill-rule="evenodd" clip-rule="evenodd" d="M8.61698 0.833313C9.00557 0.833313 9.37807 0.988466 9.65012 1.26267L11.4905 3.10306C11.7645 3.37707 11.9185 3.7487 11.9185 4.1362C11.9185 4.52371 11.7645 4.89534 11.4905 5.16935L4.77117 11.8866C4.35662 12.3648 3.76898 12.6586 3.09577 12.7048H0.0483704V12.1112L0.0502979 9.60962C0.100859 8.98379 0.391811 8.40186 0.83565 8.01079L7.58312 1.26338C7.85673 0.988116 8.22883 0.833313 8.61698 0.833313ZM3.05385 11.5192C3.37091 11.4968 3.66605 11.3492 3.90304 11.0781L8.39105 6.59013L6.16282 4.36181L1.64851 8.87503C1.40805 9.08771 1.25929 9.38523 1.23537 9.65741V11.5181L3.05385 11.5192ZM7.00226 3.52257L9.23039 5.75079L10.6512 4.33001C10.7026 4.27861 10.7314 4.20889 10.7314 4.1362C10.7314 4.06351 10.7026 3.9938 10.6512 3.9424L8.80913 2.10035C8.75831 2.04913 8.68913 2.02032 8.61697 2.02032C8.54481 2.02032 8.47564 2.04913 8.42481 2.10035L7.00226 3.52257Z" fill="black"/>
</svg>
